# xmcd CD database file
#
# Track frame offsets:
#	150
#	20843
#	45727
#	61098
#	79786
#	96207
#	113046
#	131832
#	148221
#	163197
#	178479
#	194418
#	212098
#	229647
#	246599
#	265968
#	284047
#	304929
#	324457
#	342160
#
# Disc length: 4739 seconds
#
# Revision: 10
# Processed by: cddbd v1.5.2PL0 Copyright (c) Steve Scherf et al.
# Submitted via: CDex 1.51
#
DISCID=3f128114
DTITLE=Various Artist - All Jazz  (New Jazz)  [CD 5-5]
DYEAR=2007
DGENRE=Jazz
TTITLE0=Dani Siciliano - Come As You Are
TTITLE1=Da Taz Feat. Erik Truffaz - Bohemias
TTITLE2=Quantic Soul Orchestra and Spanky Wilson - Don't Joke With A Hungry Man
TTITLE3=Jazzanova Feat Clara Hill - No Use
TTITLE4=Ursula Rucker - Black Erotica
TTITLE5=Tosca - Heidi Bruehl
TTITLE6=Diesler - A Little Something
TTITLE7=Jumbonics - (You Little) Jezebel
TTITLE8=Nostalgia 77 - The Garden
TTITLE9=Kinny and Horne - Why Me
TTITLE10=Spengler - Good Things
TTITLE11=The Bamboos - Happy
TTITLE12=Micatone - That's The Way It Goes
TTITLE13=Kruder and Dorfmeister - Black Baby
TTITLE14=Sophie Faricy Feat TM Juke - Come Away
TTITLE15=Quantic Feat. Alice Russell - The Sound Of Everything
TTITLE16=Kyoto Jazz Massive Feat. Vanessa Freeman - The Brightness Of These Days
TTITLE17=Ben Mono Feat. Bajka - Suburban Resident
TTITLE18=Slow Train - Naturally
TTITLE19=Beat Assailant Feat. Tash - Chronic Break
EXTD=YEAR: 2007
EXTT0=
EXTT1=
EXTT2=
EXTT3=
EXTT4=
EXTT5=
EXTT6=
EXTT7=
EXTT8=
EXTT9=
EXTT10=
EXTT11=
EXTT12=
EXTT13=
EXTT14=
EXTT15=
EXTT16=
EXTT17=
EXTT18=
EXTT19=
PLAYORDER=
